<svg xmlns="http://www.w3.org/2000/svg" viewBox="0 0 128 128" role="img" aria-labelledby="title desc">
  <title id="title">Loavashi Hub favicon</title>
  <desc id="desc">Simplified Loavashi Hub coffee badge favicon.</desc>
  <rect width="128" height="128" fill="#ffffff" />
  <circle cx="64" cy="64" r="56" fill="#7c4b2e" stroke="#0d1a3b" stroke-width="10" />
  <path d="M36 68 C36 50 54 40 64 40 H84 C104 40 122 50 122 68 V76 C122 88 104 92 84 92 H64 C44 92 36 88 36 76 Z" fill="#ffffff" stroke="#0d1a3b" stroke-width="8" stroke-linejoin="round" />
  <path d="M68 58 C68 50 76 42 84 42" fill="none" stroke="#ffffff" stroke-width="8" stroke-linecap="round" />
  <path d="M54 48 C54 40 64 32 74 32 C84 32 94 40 94 48" fill="none" stroke="#ffffff" stroke-width="8" stroke-linecap="round" />
  <ellipse cx="64" cy="88" rx="40" ry="8" fill="#ffffff" stroke="#0d1a3b" stroke-width="8" />
</svg>
